<?xml version="1.0" encoding="UTF-8" standalone="no"?>
<!DOCTYPE svg PUBLIC "-//W3C//DTD SVG 1.1//EN" "http://www.w3.org/Graphics/SVG/1.1/DTD/svg11.dtd">
<svg width="100%" height="100%" viewBox="0 0 1000 1000" version="1.1" xmlns="http://www.w3.org/2000/svg" xmlns:xlink="http://www.w3.org/1999/xlink" xml:space="preserve" xmlns:serif="http://www.serif.com/" style="fill-rule:evenodd;clip-rule:evenodd;stroke-linejoin:round;stroke-miterlimit:2;">
    <g transform="matrix(1,0,0,1,-1000,0)">
        <g id="Logo-Monochrome" serif:id="Logo Monochrome" transform="matrix(1,0,0,0.995298,1000,4.7021)">
            <rect x="0" y="-4.724" width="1000" height="1004.72" style="fill:none;"/>
            <g transform="matrix(1.00044,0,0,1.00044,-28.0748,-0.218249)">
                <g>
                    <g transform="matrix(1.41569,0,-0.761177,2.1012,-1737.65,-236.783)">
                        <path d="M1793.74,486.584C1789.42,490.975 1784.17,494.84 1778,498.192C1762.38,506.67 1741.42,510.909 1715.11,510.909C1688.21,510.909 1662.69,506.67 1638.54,498.192C1614.39,489.713 1592.32,478.603 1572.31,464.862L1595.46,416.184C1627.19,436.064 1656.51,446.005 1683.41,446.005L1685.38,445.952C1718.08,464.162 1755.42,478.313 1793.74,486.584ZM1591.57,362.343C1575.79,355.539 1562.57,348.116 1551.89,340.096C1531.06,324.455 1515.57,304.94 1505.41,281.551C1497.15,262.547 1495.09,246.029 1499.23,231.995C1503.37,217.962 1512.77,207.144 1527.45,199.543C1542.13,191.941 1560.73,188.141 1583.24,188.141C1622.5,188.141 1659.7,198.047 1694.83,217.894C1597.21,225.936 1549.57,284.685 1587.84,355.862L1591.57,362.343Z"/>
                        <path d="M1770.54,221.07L1760.04,196.912L1855.2,196.912C1900.52,196.912 1937.73,202.978 1966.83,215.111C1995.92,227.244 2016.63,247.49 2028.95,275.85C2036.82,293.976 2037.75,308.229 2031.74,318.608C2025.72,328.987 2015.71,336.223 2001.7,340.316C2023.65,344.409 2043.29,351.937 2060.62,362.901C2077.96,373.864 2091.32,390.163 2100.72,411.798C2115.32,445.42 2113.31,468.882 2094.68,482.185C2076.04,495.487 2044.36,502.138 1999.63,502.138L1892.62,502.138L1889.1,494.036C1988.26,486.699 2036.94,427.591 1998.38,355.862C1963.41,290.82 1867.86,236.156 1770.54,221.07Z"/>
                    </g>
                    <g transform="matrix(1.34273,0,0,1.03976,-54.7795,-20.314)">
                        <g transform="matrix(1,0,0,1.00472,-1000,-4.72431)">
                            <path d="M1410.5,378.201C1410.5,364.115 1401.64,352.679 1390.73,352.679L1351.21,352.679C1340.3,352.679 1331.44,364.115 1331.44,378.201L1331.44,648.304C1331.44,662.39 1340.3,673.826 1351.21,673.826L1390.73,673.826C1401.64,673.826 1410.5,662.39 1410.5,648.304L1410.5,378.201Z"/>
                        </g>
                        <g transform="matrix(1,0,0,1.00472,-870.969,-4.72431)">
                            <path d="M1410.5,378.201C1410.5,364.115 1401.64,352.679 1390.73,352.679L1351.21,352.679C1340.3,352.679 1331.44,364.115 1331.44,378.201L1331.44,648.304C1331.44,662.39 1340.3,673.826 1351.21,673.826L1390.73,673.826C1401.64,673.826 1410.5,662.39 1410.5,648.304L1410.5,378.201Z"/>
                        </g>
                    </g>
                </g>
            </g>
        </g>
    </g>
</svg>
