<svg xmlns="http://www.w3.org/2000/svg" xml:space="preserve" style="fill-rule:evenodd;clip-rule:evenodd;stroke-linejoin:round;stroke-miterlimit:2" viewBox="0 0 1000 1000" fill="#ffffff"><path d="M0-4.724h1000v1004.72H0z" style="fill:none" transform="matrix(1 0 0 .9953 0 4.702)"/><path d="M378.425 853.492c-11.664 11.325-24.458 21.293-38.377 29.938-35.229 21.866-75.802 32.799-121.736 32.799-46.964 0-87.54-10.933-121.745-32.799-34.204-21.868-62.306-50.522-84.343-85.961l86.112-125.545c36.736 51.272 78.593 76.911 125.558 76.911l3.489-.137c39.996 46.966 91.904 83.463 151.042 104.794Zm-236.339-320.43c-21.163-17.548-37.275-36.693-48.393-57.377-21.684-40.34-30.41-90.67-26.192-150.993 3.419-49.014 15.328-91.615 35.73-127.81 20.4-36.193 46.967-64.093 79.732-83.697 32.765-19.606 68.806-29.407 108.106-29.407 68.543 0 124.191 25.549 166.894 76.736-177.983 20.741-316.305 172.26-316.305 355.833l.428 16.715ZM587.162 168.705l4.346-62.306h166.138c79.124 0 138.394 15.645 177.81 46.937 39.398 31.293 56.55 83.509 51.438 156.652-3.275 46.749-15.031 83.509-35.267 110.277-20.253 26.769-44.522 45.431-72.824 55.987 34.48 10.557 61.703 29.972 81.667 58.25 19.982 28.274 28.007 70.31 24.11 126.11-6.072 86.714-31.605 147.225-76.619 181.535-45.03 34.307-106.583 51.46-184.676 51.46H536.457l1.46-20.895c180.01-18.923 320.485-171.369 320.497-356.365.002-167.75-115.504-308.734-271.252-347.642ZM458.657 343.172c0-18.062-14.671-32.726-32.737-32.726h-65.442c-18.066 0-32.737 14.664-32.737 32.726v346.345c0 18.062 14.671 32.726 32.737 32.726h65.442c18.066 0 32.737-14.664 32.737-32.726V343.172Z"/><path d="M672.32 343.172c0-18.062-14.67-32.726-32.737-32.726h-65.441c-18.066 0-32.737 14.664-32.737 32.726v346.345c0 18.062 14.67 32.726 32.737 32.726h65.441c18.066 0 32.738-14.664 32.738-32.726V343.172Z"/></svg>
